HIERARCHY
ROOT ui
{
	 OFFSET 0 0 0
	 CHANNELS 3 XPosition YPosition Z Position
	 EndSite
	 {
	 OFFSET 0 -1 0
	 }
}
ROOT li
{
	 OFFSET 0 0 0
	 CHANNELS 3 XPosition YPosition Z Position
	 EndSite
	 {
	 OFFSET 0 -1 0
	 }
}
ROOT ul
{
	 OFFSET 0 0 0
	 CHANNELS 3 XPosition YPosition Z Position
	 EndSite
	 {
	 OFFSET 0 -1 0
	 }
}
ROOT ll
{
	 OFFSET 0 0 0
	 CHANNELS 3 XPosition YPosition Z Position
	 EndSite
	 {
	 OFFSET 0 -1 0
	 }
}
ROOT tt
{
	 OFFSET 0 0 0
	 CHANNELS 3 XPosition YPosition Z Position
	 EndSite
	 {
	 OFFSET 0 -1 0
	 }
}
ROOT tb
{
	 OFFSET 0 0 0
	 CHANNELS 3 XPosition YPosition Z Position
	 EndSite
	 {
	 OFFSET 0 -1 0
	 }
}
ROOT td
{
	 OFFSET 0 0 0
	 CHANNELS 3 XPosition YPosition Z Position
	 EndSite
	 {
	 OFFSET 0 -1 0
	 }
}
ROOT v
{
	 OFFSET 0 0 0
	 CHANNELS 3 XPosition YPosition Z Position
	 EndSite
	 {
	 OFFSET 0 -1 0
	 }
}
ROOT bn
{
	 OFFSET 0 0 0
	 CHANNELS 3 XPosition YPosition Z Position
	 EndSite
	 {
	 OFFSET 0 -1 0
	 }
}
MOTION
Frames: 27
Frame Time: 0.002
0.005494764804840088	0.009982548713684081	0		0.5962866821289062	-2.61864111328125	0		-1.009875	0.09579771423339843	0		-0.40043789672851565	-2.708974609375	0		2.27688525390625	-1.6375430908203126	0		3.627709228515625	-0.6259069213867188	0		4.7575615234375	-0.12958572387695313	0		5.882935546875	0.3165133056640625	0		-0.2984212951660156	5.87049462890625	0		
0.006248738765716553	0.002017317056655884	0		0.6111378173828125	-2.614713134765625	0		-0.9390232543945313	0.10029160308837891	0		-0.33958026123046875	-2.704402587890625	0		2.258912353515625	-1.610358642578125	0		3.6166494140625	-0.6097733154296875	0		4.7734306640625	-0.12265727233886718	0		5.8778720703125	0.3357294616699219	0		-0.2845179138183594	5.88342822265625	0		
-0.005972480773925782	-8.282430171966552E-4	0		0.6109469604492187	-2.614649169921875	0		-1.0042970581054687	0.09085102081298828	0		-0.4067073364257813	-2.695826416015625	0		2.26074169921875	-1.6073055419921876	0		3.58251513671875	-0.601439453125	0		4.773232421875	-0.12258123779296876	0		5.88266259765625	0.3167442321777344	0		-0.284733642578125	5.8834892578125	0		
-0.006184202194213867	-7.474340200424194E-4	0		0.60873046875	-2.616550537109375	0		-0.96651025390625	0.09063574981689453	0		-0.37091693115234375	-2.69702392578125	0		2.267613037109375	-1.5972696533203126	0		3.613335693359375	-0.59758251953125	0		4.7680830078125	-0.11444292449951173	0		5.88251171875	0.3169254760742187	0		-0.30005322265625	5.8726845703125	0		
-0.0014386860132217408	-0.004687302112579346	0		0.5855747680664063	-2.6092724609375	0		-0.9856799926757812	0.09787493133544922	0		-0.3891184387207031	-2.695789306640625	0		2.2775048828125	-1.5832366943359375	0		3.61425341796875	-0.5794736328125	0		4.7749521484375	-0.10237400817871094	0		5.87882568359375	0.32932467651367187	0		-0.29931484985351564	5.87177392578125	0		
-0.0026104300022125244	0.003435362100601196	0		0.60644140625	-2.598315185546875	0		-0.9749218139648438	0.09689974212646485	0		-0.38126626586914064	-2.686738037109375	0		2.225474853515625	-1.557709228515625	0		3.606177490234375	-0.5592754516601562	0		4.78382666015625	-0.08829898834228515	0		5.88648828125	0.32425091552734375	0		-0.31466030883789065	5.86200244140625	0		
0.0011727410554885865	0.006535962104797364	0		0.5802356567382813	-2.59598046875	0		-0.9751621704101563	0.0970244140625	0		-0.3794721984863281	-2.684624755859375	0		2.2463984375	-1.53772412109375	0		3.61301806640625	-0.5491732177734375	0		4.773587890625	-0.08805804443359375	0		5.9049111328125	0.33977337646484373	0		-0.2959868774414062	5.855986328125	0		
0.023844640731811525	-0.00449337100982666	0		0.6059954833984375	-2.598028564453125	0		-0.975406005859375	0.09716378784179687	0		-0.39063406372070314	-2.67639697265625	0		2.22440478515625	-1.5063935546875	0		3.61893212890625	-0.5290468139648438	0		4.77840625	-0.07991511535644531	0		5.88483349609375	0.3612326965332031	0		-0.29627288818359376	5.856130859375	0		
-0.007368589878082275	-9.590599685907364E-5	0		0.596831298828125	-2.58979541015625	0		-0.9756514892578125	0.09731678771972656	0		-0.3868210144042969	-2.671270263671875	0		2.2382470703125	-1.496324462890625	0		3.605829345703125	-0.5107610778808593	0		4.77726953125	-0.0657125473022461	0		5.88958642578125	0.3407331237792969	0		-0.33059799194335937	5.851548828125	0		
-0.002645772933959961	-0.003961674928665161	0		0.6115869750976562	-2.591733642578125	0		-0.950884033203125	0.09929124450683594	0		-0.44303973388671875	-2.669672607421875	0		2.212271728515625	-1.461938720703125	0		3.594701416015625	-0.4954801025390625	0		4.7700693359375	-0.059453815460205076	0		5.89081494140625	0.334156005859375	0		-0.3148165283203125	5.8605966796875	0		
0.0041586699485778806	0.003168174982070923	0		0.617406982421875	-2.58459228515625	0		-0.9461030883789062	0.10343077850341797	0		-0.3642519836425781	-2.66709521484375	0		2.214306640625	-1.42575830078125	0		3.61164599609375	-0.4704056396484375	0		4.787912109375	-0.047379554748535155	0		5.90138623046875	0.34990634155273437	0		-0.31510812377929687	5.8597783203125	0		
-6.259000301361084E-5	0.00739239501953125	0		0.5794277954101562	-2.5501064453125	0		-0.9513858642578125	0.099658447265625	0		-0.4103985290527344	-2.65455224609375	0		2.220252197265625	-1.4006007080078124	0		3.593671630859375	-0.43405865478515626	0		4.777775390625	-0.03208758163452148	0		5.8933603515625	0.35043475341796876	0		-0.3294632568359375	5.85007763671875	0		
-0.0034021298885345457	-0.003381767988204956	0		0.5771644287109375	-2.551886962890625	0		-0.9675955810546875	0.10598020172119141	0		-0.37567025756835937	-2.657617919921875	0		2.210283203125	-1.36331640625	0		3.591509033203125	-0.42183053588867186	0		4.78358056640625	-0.02391691780090332	0		5.89027685546875	0.3352987976074219	0		-0.29569894409179687	5.85501953125	0		
-0.0036621739864349367	-0.003172260046005249	0		0.5789218139648438	-2.549692138671875	0		-0.967855712890625	0.1061888656616211	0		-0.40888888549804686	-2.652156982421875	0		2.210276123046875	-1.3301058349609376	0		3.583402099609375	-0.40155743408203126	0		4.7783818359375	-0.015665314674377442	0		5.89660791015625	0.36669049072265625	0		-0.33099362182617187	5.85149609375	0		
-0.008895959854125977	0.001080225944519043	0		0.5806762084960938	-2.546494140625	0		-0.9681199951171875	0.1064048080444336	0		-0.3592123718261719	-2.659323486328125	0		2.2122919921875	-1.2929112548828126	0		3.583365966796875	-0.3713494567871094	0		4.7821630859375	-0.009489034652709961	0		5.89641943359375	0.36704541015625	0		-0.33025662231445313	5.85070361328125	0		
-1.7162099480628969E-4	2.2927099466323853E-4	0		0.5854508666992188	-2.539317138671875	0		-0.9643568725585937	0.11059600830078126	0		-0.4223827514648438	-2.64462353515625	0		2.17147802734375	-1.2323916015625	0		3.57434130859375	-0.33907931518554685	0		4.78010888671875	0.018722639083862305	0		5.89633203125	0.4002470703125	0		-0.3304992980957031	5.8509228515625	0		
-0.0054020099639892575	0.0054867429733276366	0		0.5871790771484375	-2.537117431640625	0		-0.9746168823242187	0.11189874267578125	0		-0.3956101379394531	-2.636607666015625	0		2.1744833984375	-1.1952117919921874	0		3.579245849609375	-0.3159244689941406	0		4.78983251953125	0.01783129692077637	0		5.9032724609375	0.4004205627441406	0		-0.33072604370117187	5.85114453125	0		
-0.009698766708374024	0.0017366069555282593	0		0.5848718872070312	-2.538888916015625	0		-0.9799125366210938	0.10816606140136718	0		-0.4268486328125	-2.6291474609375	0		2.170656494140625	-1.13598583984375	0		3.576167724609375	-0.2907193603515625	0		4.769689453125	0.034154541015625	0		5.90308203125	0.40069540405273435	0		-0.2968959045410156	5.8561064453125	0		
-0.004988645076751709	-0.0020853590965270994	0		0.586594970703125	-2.53669580078125	0		-0.9901622314453125	0.10947160339355469	0		-0.392166015625	-2.632194091796875	0		2.165689453125	-1.0957608642578125	0		3.567150390625	-0.2584817810058594	0		4.775484375	0.041262313842773436	0		5.902896484375	0.4009351806640625	0		-0.33111602783203126	5.85158740234375	0		
-0.00523410415649414	-0.0018750820159912109	0		0.5353721923828125	-2.528103271484375	0		-0.9804139404296875	0.10862075042724609	0		-0.41044509887695313	-2.63083935546875	0		2.137896240234375	-1.034371826171875	0		3.550093505859375	-0.2331984405517578	0		4.77233935546875	0.05441920471191406	0		5.90543115234375	0.35610317993164065	0		-0.33029144287109374	5.848794921875	0		
0.028586767196655274	0.004064315795898437	0		0.5961295776367187	-2.5243818359375	0		-0.9715748291015625	0.11677088928222656	0		-0.40264956665039064	-2.621692138671875	0		2.10417724609375	-0.9659506225585938	0		3.590117919921875	-0.2003726043701172	0		4.7662783203125	0.07557682037353515	0		5.92094482421875	0.35077572631835935	0		-0.298253173828125	5.86875537109375	0		
-0.005654915809631348	-0.0014839060306549073	0		0.5958789672851562	-2.524205078125	0		-0.9886524047851563	0.1321121826171875	0		-0.4138323669433594	-2.6124091796875	0		2.132422607421875	-0.906024169921875	0		3.546180908203125	-0.16592112731933595	0		4.76608349609375	0.07566426086425782	0		5.91587744140625	0.37173507690429686	0		-0.28134747314453123	5.8658203125	0		
0.020180158615112305	-0.0015103130340576173	0		0.6126997680664062	-2.518176513671875	0		-0.9819219970703125	0.1182571792602539	0		-0.41204425048828125	-2.610239990234375	0		2.088648681640625	-0.8525615234375	0		3.56215185546875	-0.14795652770996093	0		4.7529912109375	0.08482428741455078	0		5.91283984375	0.35108203125	0		-0.2954544677734375	5.85511083984375	0		
-0.008979702949523926	-0.005128005027770996	0		0.5765883178710938	-2.50675634765625	0		-0.9820484008789062	0.11844115447998046	0		-0.4102293395996094	-2.608087158203125	0		2.11796142578125	-0.7926883544921876	0		3.544306396484375	-0.11075732421875	0		4.75108154296875	0.11286698913574218	0		5.91274560546875	0.35107342529296875	0		-0.3445477294921875	5.83965771484375	0		
-0.006042966842651367	-0.001014022946357727	0		0.5893858642578125	-2.510738037109375	0		-0.9671160278320312	0.12149122619628906	0		-0.4083876953125	-2.605952880859375	0		2.057375732421875	-0.7241417846679687	0		3.560348876953125	-0.0928537826538086	0		4.75592822265625	0.1048203125	0		5.9199150390625	0.3837296142578125	0		-0.329393798828125	5.84868798828125	0		
-0.006100893020629883	-8.983129858970643E-4	0		0.55938427734375	-2.492407958984375	0		-0.9471155395507812	0.12848275756835936	0		-0.4044955139160156	-2.60085498046875	0		2.072794189453125	-0.660216064453125	0		3.53863330078125	-0.04868876647949219	0		4.75903076171875	0.1247492446899414	0		5.91625537109375	0.36807470703125	0		-0.32925192260742187	5.84881494140625	0		
0.01987859344482422	-0.0010103369951248169	0		0.5862457885742187	-2.49554931640625	0		-0.9430989379882813	0.13257952880859375	0		-0.41555029296875	-2.59266064453125	0		2.06623828125	-0.5981488037109375	0		3.55968994140625	-0.03889589309692383	0		4.75013427734375	0.13973208618164062	0		5.91985595703125	0.38334527587890627	0		-0.3090902099609375	5.84376220703125	0		
